<?xml version="1.0" encoding="UTF-8" standalone="no" ?>
<!DOCTYPE svg PUBLIC "-//W3C//DTD SVG 1.1//EN" "http://www.w3.org/Graphics/SVG/1.1/DTD/svg11.dtd">
<svg xmlns="http://www.w3.org/2000/svg" xmlns:xlink="http://www.w3.org/1999/xlink" version="1.1" width="640" height="480" viewBox="0 0 640 480" xml:space="preserve">
<desc>Created with Fabric.js 3.6.6</desc>
<defs>
</defs>
<g transform="matrix(1 0 0 1 192.7 259.87)"  >
<g style=""   >
		<g transform="matrix(2.48 0 0 2.48 -10.88 81.48)"  >
<path style="stroke: none; stroke-width: 1; stroke-dasharray: none; stroke-linecap: butt; stroke-dashoffset: 0; stroke-linejoin: miter; stroke-miterlimit: 4; fill: rgb(0,16,0); fill-rule: nonzero; opacity: 1;"  transform=" translate(-27.2, -50.72)" d="m 37.867 53.851 c -12.969 -13.287 -10.453 4.822 -22.15 -4.0609 c 12.408 1.8981 8.9231 -7.861 22.962 3.101 l -0.81218 0.95985 z" stroke-linecap="round" />
</g>
		<g transform="matrix(2.48 0 0 2.48 -32.3 69.18)"  >
<path style="stroke: none; stroke-width: 1; stroke-dasharray: none; stroke-linecap: butt; stroke-dashoffset: 0; stroke-linejoin: miter; stroke-miterlimit: 4; fill: rgb(0,16,0); fill-rule: nonzero; opacity: 1;"  transform=" translate(-18.56, -45.76)" d="m 25.758 48.019 c -6.1761 -2.3157 -1.7878 -1.0064 -8.8601 -5.9806 c 2.3045 3.4939 1.9518 5.1538 5.6114 5.9806 c -5.5657 -1.3068 -6.0419 1.001 -11.149 -2.7319 c 3.4232 3.3986 3.9313 5.927 14.398 2.7319 z" stroke-linecap="round" />
</g>
		<g transform="matrix(2.48 0 0 2.48 -45.21 59.38)"  >
<path style="stroke: none; stroke-width: 1; stroke-dasharray: none; stroke-linecap: butt; stroke-dashoffset: 0; stroke-linejoin: miter; stroke-miterlimit: 4; fill: rgb(0,16,0); fill-rule: nonzero; opacity: 1;"  transform=" translate(-13.35, -41.81)" d="m 19.012 46.946 c -4.1908 -5.0935 -1.1928 -4.4974 -5.6427 -10.274 c 1.4301 4.3996 0.07335 6.1037 2.8292 8.6496 c -4.1667 -3.9145 -5.2161 -1.2681 -8.5109 -6.6113 c 1.2652 4.6549 0.66257 5.7695 11.324 8.2357 z" stroke-linecap="round" />
</g>
		<g transform="matrix(2.48 0 0 2.48 -53.81 47.95)"  >
<path style="stroke: none; stroke-width: 1; stroke-dasharray: none; stroke-linecap: butt; stroke-dashoffset: 0; stroke-linejoin: miter; stroke-miterlimit: 4; fill: rgb(0,16,0); fill-rule: nonzero; opacity: 1;"  transform=" translate(-9.88, -37.2)" d="m 13.947 42.834 c -1.9686 -4.956 -0.77773 -8.6259 -2.2601 -11.276 c -0.8874 4.599 -0.92097 6.061 0.04507 8.5362 c -2.168 -4.5874 -3.0711 -2.0819 -5.9108 -7.9875 c -0.19804 4.8854 2.4883 7.3952 8.1258 10.727 z" stroke-linecap="round" />
</g>
		<g transform="matrix(2.48 0 0 2.48 -56.6 31.59)"  >
<path style="stroke: none; stroke-width: 1; stroke-dasharray: none; stroke-linecap: butt; stroke-dashoffset: 0; stroke-linejoin: miter; stroke-miterlimit: 4; fill: rgb(0,16,0); fill-rule: nonzero; opacity: 1;"  transform=" translate(-8.75, -30.6)" d="m 10.282 36.829 c -0.61882 -5.2967 1.186 -3.9556 1.6213 -11.403 c -2.7858 4.6557 -3.049 5.8376 -2.7565 8.4784 c -0.90682 -4.9922 -1.6893 -3.1011 -2.9038 -9.5405 c -1.4557 4.6676 -0.54422 7.7872 4.0389 12.465 z" stroke-linecap="round" />
</g>
		<g transform="matrix(2.48 0 0 2.48 -53.09 14.89)"  >
<path style="stroke: none; stroke-width: 1; stroke-dasharray: none; stroke-linecap: butt; stroke-dashoffset: 0; stroke-linejoin: miter; stroke-miterlimit: 4; fill: rgb(0,16,0); fill-rule: nonzero; opacity: 1;"  transform=" translate(-10.17, -23.86)" d="m 8.6903 30.219 c 0.99465 -5.2025 4.1629 -4.3998 4.665 -9.93 c -1.6808 3.8498 -3.7914 1.6747 -4.5616 6.7378 c 0.41616 -5.0568 -1.1244 -6.7552 0.25513 -9.524 c -3.4264 3.4673 -1.8767 6.1997 -0.35852 12.716 z" stroke-linecap="round" />
</g>
		<g transform="matrix(2.48 0 0 2.48 -47.36 2.81)"  >
<path style="stroke: none; stroke-width: 1; stroke-dasharray: none; stroke-linecap: butt; stroke-dashoffset: 0; stroke-linejoin: miter; stroke-miterlimit: 4; fill: rgb(0,16,0); fill-rule: nonzero; opacity: 1;"  transform=" translate(-12.48, -18.99)" d="m 9.5025 23.943 c 1.6592 -4.8333 5.6396 -2.7016 6.1417 -8.2318 c -1.6808 2.5946 -3.2008 1.4532 -5.3738 5.5564 c 1.1545 -3.1371 -0.16456 -3.3588 2.6917 -7.2351 c -3.6479 1.9906 -3.944 3.5417 -3.4596 9.9105 z" stroke-linecap="round" />
</g>
		<g transform="matrix(2.48 0 0 2.48 -40.99 -7.4)"  >
<path style="stroke: none; stroke-width: 1; stroke-dasharray: none; stroke-linecap: butt; stroke-dashoffset: 0; stroke-linejoin: miter; stroke-miterlimit: 4; fill: rgb(0,16,0); fill-rule: nonzero; opacity: 1;"  transform=" translate(-15.05, -14.87)" d="m 11.803 18.337 c 4.3408 -3.1177 2.278 -2.8282 6.4974 -6.9404 c -6.3889 2.5786 -4.8099 3.349 -6.4974 6.9404 z" stroke-linecap="round" />
</g>
		<g transform="matrix(2.48 0 0 2.48 10.23 80.8)"  >
<path style="stroke: none; stroke-width: 1; stroke-dasharray: none; stroke-linecap: butt; stroke-dashoffset: 0; stroke-linejoin: miter; stroke-miterlimit: 4; fill: rgb(0,16,0); fill-rule: nonzero; opacity: 1;"  transform=" translate(-35.99, -50.72)" d="m 25.319 53.851 c 12.969 -13.287 10.453 4.822 22.15 -4.0609 c -12.408 1.8981 -8.9231 -7.861 -22.962 3.101 l 0.81218 0.95985 z" stroke-linecap="round" />
</g>
		<g transform="matrix(2.48 0 0 2.48 31.64 68.51)"  >
<path style="stroke: none; stroke-width: 1; stroke-dasharray: none; stroke-linecap: butt; stroke-dashoffset: 0; stroke-linejoin: miter; stroke-miterlimit: 4; fill: rgb(0,16,0); fill-rule: nonzero; opacity: 1;"  transform=" translate(-44.63, -45.76)" d="m 37.428 48.019 c 6.1761 -2.3157 1.7878 -1.0064 8.8601 -5.9806 c -2.3045 3.4939 -1.9518 5.1538 -5.6114 5.9806 c 5.5657 -1.3068 6.0419 1.001 11.149 -2.7319 c -3.4232 3.3986 -3.9313 5.927 -14.398 2.7319 z" stroke-linecap="round" />
</g>
		<g transform="matrix(2.48 0 0 2.48 44.56 58.71)"  >
<path style="stroke: none; stroke-width: 1; stroke-dasharray: none; stroke-linecap: butt; stroke-dashoffset: 0; stroke-linejoin: miter; stroke-miterlimit: 4; fill: rgb(0,16,0); fill-rule: nonzero; opacity: 1;"  transform=" translate(-49.84, -41.81)" d="m 44.173 46.946 c 4.1908 -5.0935 1.1928 -4.4974 5.6427 -10.274 c -1.4301 4.3996 -0.07335 6.1037 -2.8292 8.6496 c 4.1667 -3.9145 5.2161 -1.2681 8.5109 -6.6113 c -1.2652 4.6549 -0.66257 5.7695 -11.324 8.2357 z" stroke-linecap="round" />
</g>
		<g transform="matrix(2.48 0 0 2.48 53.16 47.27)"  >
<path style="stroke: none; stroke-width: 1; stroke-dasharray: none; stroke-linecap: butt; stroke-dashoffset: 0; stroke-linejoin: miter; stroke-miterlimit: 4; fill: rgb(0,16,0); fill-rule: nonzero; opacity: 1;"  transform=" translate(-53.31, -37.2)" d="m 49.239 42.834 c 1.9686 -4.956 0.77773 -8.6259 2.2601 -11.276 c 0.8874 4.599 0.92097 6.061 -0.04507 8.5362 c 2.168 -4.5874 3.0711 -2.0819 5.9108 -7.9875 c 0.19804 4.8854 -2.4883 7.3952 -8.1258 10.727 z" stroke-linecap="round" />
</g>
		<g transform="matrix(2.48 0 0 2.48 55.95 30.91)"  >
<path style="stroke: none; stroke-width: 1; stroke-dasharray: none; stroke-linecap: butt; stroke-dashoffset: 0; stroke-linejoin: miter; stroke-miterlimit: 4; fill: rgb(0,16,0); fill-rule: nonzero; opacity: 1;"  transform=" translate(-54.43, -30.6)" d="m 52.904 36.829 c 0.61882 -5.2967 -1.186 -3.9556 -1.6213 -11.403 c 2.7858 4.6557 3.049 5.8376 2.7565 8.4784 c 0.90682 -4.9922 1.6893 -3.1011 2.9038 -9.5405 c 1.4557 4.6676 0.54422 7.7872 -4.0389 12.465 z" stroke-linecap="round" />
</g>
		<g transform="matrix(2.48 0 0 2.48 52.43 14.22)"  >
<path style="stroke: none; stroke-width: 1; stroke-dasharray: none; stroke-linecap: butt; stroke-dashoffset: 0; stroke-linejoin: miter; stroke-miterlimit: 4; fill: rgb(0,16,0); fill-rule: nonzero; opacity: 1;"  transform=" translate(-53.01, -23.86)" d="m 54.495 30.219 c -0.99465 -5.2025 -4.1629 -4.3998 -4.665 -9.93 c 1.6808 3.8498 3.7914 1.6747 4.5616 6.7378 c -0.41616 -5.0568 1.1244 -6.7552 -0.25513 -9.524 c 3.4264 3.4673 1.8767 6.1997 0.35852 12.716 z" stroke-linecap="round" />
</g>
		<g transform="matrix(2.48 0 0 2.48 46.7 2.14)"  >
<path style="stroke: none; stroke-width: 1; stroke-dasharray: none; stroke-linecap: butt; stroke-dashoffset: 0; stroke-linejoin: miter; stroke-miterlimit: 4; fill: rgb(0,16,0); fill-rule: nonzero; opacity: 1;"  transform=" translate(-50.7, -18.99)" d="m 53.683 23.943 c -1.6592 -4.8333 -5.6396 -2.7016 -6.1417 -8.2318 c 1.6808 2.5946 3.2008 1.4532 5.3738 5.5564 c -1.1545 -3.1371 0.16456 -3.3588 -2.6917 -7.2351 c 3.6479 1.9906 3.944 3.5417 3.4596 9.9105 z" stroke-linecap="round" />
</g>
		<g transform="matrix(2.48 0 0 2.48 40.34 -8.08)"  >
<path style="stroke: none; stroke-width: 1; stroke-dasharray: none; stroke-linecap: butt; stroke-dashoffset: 0; stroke-linejoin: miter; stroke-miterlimit: 4; fill: rgb(0,16,0); fill-rule: nonzero; opacity: 1;"  transform=" translate(-48.13, -14.87)" d="m 51.382 18.337 c -4.3408 -3.1177 -2.278 -2.8282 -6.4974 -6.9404 c 6.3889 2.5786 4.8099 3.349 6.4974 6.9404 z" stroke-linecap="round" />
</g>
		<g transform="matrix(2.48 0 0 2.48 -10.23 81.48)"  >
<linearGradient id="SVGID_linearGradient317_7" gradientUnits="userSpaceOnUse" gradientTransform="matrix(1 0 0 1 0 0)"  x1="25.153" y1="16.954" x2="28.837" y2="54.124">
<stop offset="0%" style="stop-color:rgb(0,180,0);stop-opacity: 1"/>
<stop offset="100%" style="stop-color:rgb(0,120,0);stop-opacity: 1"/>
</linearGradient>
<path style="stroke: none; stroke-width: 1; stroke-dasharray: none; stroke-linecap: butt; stroke-dashoffset: 0; stroke-linejoin: miter; stroke-miterlimit: 4; fill: url(#SVGID_linearGradient317_7); fill-rule: nonzero; opacity: 1;"  transform=" translate(-27.2, -50.72)" d="m 37.867 53.851 c -12.969 -13.287 -10.453 4.822 -22.15 -4.0609 c 12.408 1.8981 8.9231 -7.861 22.962 3.101 l -0.81218 0.95985 z" stroke-linecap="round" />
</g>
		<g transform="matrix(2.48 0 0 2.48 -31.64 69.18)"  >
<linearGradient id="SVGID_linearGradient317_8" gradientUnits="userSpaceOnUse" gradientTransform="matrix(1 0 0 1 0 0)"  x1="25.153" y1="16.954" x2="28.837" y2="54.124">
<stop offset="0%" style="stop-color:rgb(0,180,0);stop-opacity: 1"/>
<stop offset="100%" style="stop-color:rgb(0,120,0);stop-opacity: 1"/>
</linearGradient>
<path style="stroke: none; stroke-width: 1; stroke-dasharray: none; stroke-linecap: butt; stroke-dashoffset: 0; stroke-linejoin: miter; stroke-miterlimit: 4; fill: url(#SVGID_linearGradient317_8); fill-rule: nonzero; opacity: 1;"  transform=" translate(-18.56, -45.76)" d="m 25.758 48.019 c -6.1761 -2.3157 -1.7878 -1.0064 -8.8601 -5.9806 c 2.3045 3.4939 1.9518 5.1538 5.6114 5.9806 c -5.5657 -1.3068 -6.0419 1.001 -11.149 -2.7319 c 3.4232 3.3986 3.9313 5.927 14.398 2.7319 z" stroke-linecap="round" />
</g>
		<g transform="matrix(2.48 0 0 2.48 -44.56 59.38)"  >
<linearGradient id="SVGID_linearGradient317_9" gradientUnits="userSpaceOnUse" gradientTransform="matrix(1 0 0 1 0 0)"  x1="25.153" y1="16.954" x2="28.837" y2="54.124">
<stop offset="0%" style="stop-color:rgb(0,180,0);stop-opacity: 1"/>
<stop offset="100%" style="stop-color:rgb(0,120,0);stop-opacity: 1"/>
</linearGradient>
<path style="stroke: none; stroke-width: 1; stroke-dasharray: none; stroke-linecap: butt; stroke-dashoffset: 0; stroke-linejoin: miter; stroke-miterlimit: 4; fill: url(#SVGID_linearGradient317_9); fill-rule: nonzero; opacity: 1;"  transform=" translate(-13.35, -41.81)" d="m 19.012 46.946 c -4.1908 -5.0935 -1.1928 -4.4974 -5.6427 -10.274 c 1.4301 4.3996 0.07335 6.1037 2.8292 8.6496 c -4.1667 -3.9145 -5.2161 -1.2681 -8.5109 -6.6113 c 1.2652 4.6549 0.66257 5.7695 11.324 8.2357 z" stroke-linecap="round" />
</g>
		<g transform="matrix(2.48 0 0 2.48 -53.16 47.95)"  >
<linearGradient id="SVGID_linearGradient317_10" gradientUnits="userSpaceOnUse" gradientTransform="matrix(1 0 0 1 0 0)"  x1="25.153" y1="16.954" x2="28.837" y2="54.124">
<stop offset="0%" style="stop-color:rgb(0,180,0);stop-opacity: 1"/>
<stop offset="100%" style="stop-color:rgb(0,120,0);stop-opacity: 1"/>
</linearGradient>
<path style="stroke: none; stroke-width: 1; stroke-dasharray: none; stroke-linecap: butt; stroke-dashoffset: 0; stroke-linejoin: miter; stroke-miterlimit: 4; fill: url(#SVGID_linearGradient317_10); fill-rule: nonzero; opacity: 1;"  transform=" translate(-9.88, -37.2)" d="m 13.947 42.834 c -1.9686 -4.956 -0.77773 -8.6259 -2.2601 -11.276 c -0.8874 4.599 -0.92097 6.061 0.04507 8.5362 c -2.168 -4.5874 -3.0711 -2.0819 -5.9108 -7.9875 c -0.19804 4.8854 2.4883 7.3952 8.1258 10.727 z" stroke-linecap="round" />
</g>
		<g transform="matrix(2.48 0 0 2.48 -55.95 31.59)"  >
<linearGradient id="SVGID_linearGradient317_11" gradientUnits="userSpaceOnUse" gradientTransform="matrix(1 0 0 1 0 0)"  x1="25.153" y1="16.954" x2="28.837" y2="54.124">
<stop offset="0%" style="stop-color:rgb(0,180,0);stop-opacity: 1"/>
<stop offset="100%" style="stop-color:rgb(0,120,0);stop-opacity: 1"/>
</linearGradient>
<path style="stroke: none; stroke-width: 1; stroke-dasharray: none; stroke-linecap: butt; stroke-dashoffset: 0; stroke-linejoin: miter; stroke-miterlimit: 4; fill: url(#SVGID_linearGradient317_11); fill-rule: nonzero; opacity: 1;"  transform=" translate(-8.75, -30.6)" d="m 10.282 36.829 c -0.61882 -5.2967 1.186 -3.9556 1.6213 -11.403 c -2.7858 4.6557 -3.049 5.8376 -2.7565 8.4784 c -0.90682 -4.9922 -1.6893 -3.1011 -2.9038 -9.5405 c -1.4557 4.6676 -0.54422 7.7872 4.0389 12.465 z" stroke-linecap="round" />
</g>
		<g transform="matrix(2.48 0 0 2.48 -52.43 14.89)"  >
<linearGradient id="SVGID_linearGradient317_12" gradientUnits="userSpaceOnUse" gradientTransform="matrix(1 0 0 1 0 0)"  x1="25.153" y1="16.954" x2="28.837" y2="54.124">
<stop offset="0%" style="stop-color:rgb(0,180,0);stop-opacity: 1"/>
<stop offset="100%" style="stop-color:rgb(0,120,0);stop-opacity: 1"/>
</linearGradient>
<path style="stroke: none; stroke-width: 1; stroke-dasharray: none; stroke-linecap: butt; stroke-dashoffset: 0; stroke-linejoin: miter; stroke-miterlimit: 4; fill: url(#SVGID_linearGradient317_12); fill-rule: nonzero; opacity: 1;"  transform=" translate(-10.17, -23.86)" d="m 8.6903 30.219 c 0.99465 -5.2025 4.1629 -4.3998 4.665 -9.93 c -1.6808 3.8498 -3.7914 1.6747 -4.5616 6.7378 c 0.41616 -5.0568 -1.1244 -6.7552 0.25513 -9.524 c -3.4264 3.4673 -1.8767 6.1997 -0.35852 12.716 z" stroke-linecap="round" />
</g>
		<g transform="matrix(2.48 0 0 2.48 -46.7 2.81)"  >
<linearGradient id="SVGID_linearGradient317_13" gradientUnits="userSpaceOnUse" gradientTransform="matrix(1 0 0 1 0 0)"  x1="25.153" y1="16.954" x2="28.837" y2="54.124">
<stop offset="0%" style="stop-color:rgb(0,180,0);stop-opacity: 1"/>
<stop offset="100%" style="stop-color:rgb(0,120,0);stop-opacity: 1"/>
</linearGradient>
<path style="stroke: none; stroke-width: 1; stroke-dasharray: none; stroke-linecap: butt; stroke-dashoffset: 0; stroke-linejoin: miter; stroke-miterlimit: 4; fill: url(#SVGID_linearGradient317_13); fill-rule: nonzero; opacity: 1;"  transform=" translate(-12.48, -18.99)" d="m 9.5025 23.943 c 1.6592 -4.8333 5.6396 -2.7016 6.1417 -8.2318 c -1.6808 2.5946 -3.2008 1.4532 -5.3738 5.5564 c 1.1545 -3.1371 -0.16456 -3.3588 2.6917 -7.2351 c -3.6479 1.9906 -3.944 3.5417 -3.4596 9.9105 z" stroke-linecap="round" />
</g>
		<g transform="matrix(2.48 0 0 2.48 -40.34 -7.4)"  >
<linearGradient id="SVGID_linearGradient317_14" gradientUnits="userSpaceOnUse" gradientTransform="matrix(1 0 0 1 0 0)"  x1="25.153" y1="16.954" x2="28.837" y2="54.124">
<stop offset="0%" style="stop-color:rgb(0,180,0);stop-opacity: 1"/>
<stop offset="100%" style="stop-color:rgb(0,120,0);stop-opacity: 1"/>
</linearGradient>
<path style="stroke: none; stroke-width: 1; stroke-dasharray: none; stroke-linecap: butt; stroke-dashoffset: 0; stroke-linejoin: miter; stroke-miterlimit: 4; fill: url(#SVGID_linearGradient317_14); fill-rule: nonzero; opacity: 1;"  transform=" translate(-15.05, -14.87)" d="m 11.803 18.337 c 4.3408 -3.1177 2.278 -2.8282 6.4974 -6.9404 c -6.3889 2.5786 -4.8099 3.349 -6.4974 6.9404 z" stroke-linecap="round" />
</g>
		<g transform="matrix(2.48 0 0 2.48 10.88 80.8)"  >
<linearGradient id="SVGID_linearGradient317_15" gradientUnits="userSpaceOnUse" gradientTransform="matrix(1 0 0 1 0 0)"  x1="25.153" y1="16.954" x2="28.837" y2="54.124">
<stop offset="0%" style="stop-color:rgb(0,180,0);stop-opacity: 1"/>
<stop offset="100%" style="stop-color:rgb(0,120,0);stop-opacity: 1"/>
</linearGradient>
<path style="stroke: none; stroke-width: 1; stroke-dasharray: none; stroke-linecap: butt; stroke-dashoffset: 0; stroke-linejoin: miter; stroke-miterlimit: 4; fill: url(#SVGID_linearGradient317_15); fill-rule: nonzero; opacity: 1;"  transform=" translate(-35.99, -50.72)" d="m 25.319 53.851 c 12.969 -13.287 10.453 4.822 22.15 -4.0609 c -12.408 1.8981 -8.9231 -7.861 -22.962 3.101 l 0.81218 0.95985 z" stroke-linecap="round" />
</g>
		<g transform="matrix(2.48 0 0 2.48 32.3 68.51)"  >
<linearGradient id="SVGID_linearGradient317_16" gradientUnits="userSpaceOnUse" gradientTransform="matrix(1 0 0 1 0 0)"  x1="25.153" y1="16.954" x2="28.837" y2="54.124">
<stop offset="0%" style="stop-color:rgb(0,180,0);stop-opacity: 1"/>
<stop offset="100%" style="stop-color:rgb(0,120,0);stop-opacity: 1"/>
</linearGradient>
<path style="stroke: none; stroke-width: 1; stroke-dasharray: none; stroke-linecap: butt; stroke-dashoffset: 0; stroke-linejoin: miter; stroke-miterlimit: 4; fill: url(#SVGID_linearGradient317_16); fill-rule: nonzero; opacity: 1;"  transform=" translate(-44.63, -45.76)" d="m 37.428 48.019 c 6.1761 -2.3157 1.7878 -1.0064 8.8601 -5.9806 c -2.3045 3.4939 -1.9518 5.1538 -5.6114 5.9806 c 5.5657 -1.3068 6.0419 1.001 11.149 -2.7319 c -3.4232 3.3986 -3.9313 5.927 -14.398 2.7319 z" stroke-linecap="round" />
</g>
		<g transform="matrix(2.48 0 0 2.48 45.21 58.71)"  >
<linearGradient id="SVGID_linearGradient317_17" gradientUnits="userSpaceOnUse" gradientTransform="matrix(1 0 0 1 0 0)"  x1="25.153" y1="16.954" x2="28.837" y2="54.124">
<stop offset="0%" style="stop-color:rgb(0,180,0);stop-opacity: 1"/>
<stop offset="100%" style="stop-color:rgb(0,120,0);stop-opacity: 1"/>
</linearGradient>
<path style="stroke: none; stroke-width: 1; stroke-dasharray: none; stroke-linecap: butt; stroke-dashoffset: 0; stroke-linejoin: miter; stroke-miterlimit: 4; fill: url(#SVGID_linearGradient317_17); fill-rule: nonzero; opacity: 1;"  transform=" translate(-49.84, -41.81)" d="m 44.173 46.946 c 4.1908 -5.0935 1.1928 -4.4974 5.6427 -10.274 c -1.4301 4.3996 -0.07335 6.1037 -2.8292 8.6496 c 4.1667 -3.9145 5.2161 -1.2681 8.5109 -6.6113 c -1.2652 4.6549 -0.66257 5.7695 -11.324 8.2357 z" stroke-linecap="round" />
</g>
		<g transform="matrix(2.48 0 0 2.48 53.81 47.27)"  >
<linearGradient id="SVGID_linearGradient317_18" gradientUnits="userSpaceOnUse" gradientTransform="matrix(1 0 0 1 0 0)"  x1="25.153" y1="16.954" x2="28.837" y2="54.124">
<stop offset="0%" style="stop-color:rgb(0,180,0);stop-opacity: 1"/>
<stop offset="100%" style="stop-color:rgb(0,120,0);stop-opacity: 1"/>
</linearGradient>
<path style="stroke: none; stroke-width: 1; stroke-dasharray: none; stroke-linecap: butt; stroke-dashoffset: 0; stroke-linejoin: miter; stroke-miterlimit: 4; fill: url(#SVGID_linearGradient317_18); fill-rule: nonzero; opacity: 1;"  transform=" translate(-53.31, -37.2)" d="m 49.239 42.834 c 1.9686 -4.956 0.77773 -8.6259 2.2601 -11.276 c 0.8874 4.599 0.92097 6.061 -0.04507 8.5362 c 2.168 -4.5874 3.0711 -2.0819 5.9108 -7.9875 c 0.19804 4.8854 -2.4883 7.3952 -8.1258 10.727 z" stroke-linecap="round" />
</g>
		<g transform="matrix(2.48 0 0 2.48 56.6 30.91)"  >
<linearGradient id="SVGID_linearGradient317_19" gradientUnits="userSpaceOnUse" gradientTransform="matrix(1 0 0 1 0 0)"  x1="25.153" y1="16.954" x2="28.837" y2="54.124">
<stop offset="0%" style="stop-color:rgb(0,180,0);stop-opacity: 1"/>
<stop offset="100%" style="stop-color:rgb(0,120,0);stop-opacity: 1"/>
</linearGradient>
<path style="stroke: none; stroke-width: 1; stroke-dasharray: none; stroke-linecap: butt; stroke-dashoffset: 0; stroke-linejoin: miter; stroke-miterlimit: 4; fill: url(#SVGID_linearGradient317_19); fill-rule: nonzero; opacity: 1;"  transform=" translate(-54.43, -30.6)" d="m 52.904 36.829 c 0.61882 -5.2967 -1.186 -3.9556 -1.6213 -11.403 c 2.7858 4.6557 3.049 5.8376 2.7565 8.4784 c 0.90682 -4.9922 1.6893 -3.1011 2.9038 -9.5405 c 1.4557 4.6676 0.54422 7.7872 -4.0389 12.465 z" stroke-linecap="round" />
</g>
		<g transform="matrix(2.48 0 0 2.48 53.08 14.22)"  >
<linearGradient id="SVGID_linearGradient317_20" gradientUnits="userSpaceOnUse" gradientTransform="matrix(1 0 0 1 0 0)"  x1="25.153" y1="16.954" x2="28.837" y2="54.124">
<stop offset="0%" style="stop-color:rgb(0,180,0);stop-opacity: 1"/>
<stop offset="100%" style="stop-color:rgb(0,120,0);stop-opacity: 1"/>
</linearGradient>
<path style="stroke: none; stroke-width: 1; stroke-dasharray: none; stroke-linecap: butt; stroke-dashoffset: 0; stroke-linejoin: miter; stroke-miterlimit: 4; fill: url(#SVGID_linearGradient317_20); fill-rule: nonzero; opacity: 1;"  transform=" translate(-53.01, -23.86)" d="m 54.495 30.219 c -0.99465 -5.2025 -4.1629 -4.3998 -4.665 -9.93 c 1.6808 3.8498 3.7914 1.6747 4.5616 6.7378 c -0.41616 -5.0568 1.1244 -6.7552 -0.25513 -9.524 c 3.4264 3.4673 1.8767 6.1997 0.35852 12.716 z" stroke-linecap="round" />
</g>
		<g transform="matrix(2.48 0 0 2.48 47.36 2.14)"  >
<linearGradient id="SVGID_linearGradient317_21" gradientUnits="userSpaceOnUse" gradientTransform="matrix(1 0 0 1 0 0)"  x1="25.153" y1="16.954" x2="28.837" y2="54.124">
<stop offset="0%" style="stop-color:rgb(0,180,0);stop-opacity: 1"/>
<stop offset="100%" style="stop-color:rgb(0,120,0);stop-opacity: 1"/>
</linearGradient>
<path style="stroke: none; stroke-width: 1; stroke-dasharray: none; stroke-linecap: butt; stroke-dashoffset: 0; stroke-linejoin: miter; stroke-miterlimit: 4; fill: url(#SVGID_linearGradient317_21); fill-rule: nonzero; opacity: 1;"  transform=" translate(-50.7, -18.99)" d="m 53.683 23.943 c -1.6592 -4.8333 -5.6396 -2.7016 -6.1417 -8.2318 c 1.6808 2.5946 3.2008 1.4532 5.3738 5.5564 c -1.1545 -3.1371 0.16456 -3.3588 -2.6917 -7.2351 c 3.6479 1.9906 3.944 3.5417 3.4596 9.9105 z" stroke-linecap="round" />
</g>
		<g transform="matrix(2.48 0 0 2.48 40.99 -8.08)"  >
<linearGradient id="SVGID_linearGradient317_22" gradientUnits="userSpaceOnUse" gradientTransform="matrix(1 0 0 1 0 0)"  x1="25.153" y1="16.954" x2="28.837" y2="54.124">
<stop offset="0%" style="stop-color:rgb(0,180,0);stop-opacity: 1"/>
<stop offset="100%" style="stop-color:rgb(0,120,0);stop-opacity: 1"/>
</linearGradient>
<path style="stroke: none; stroke-width: 1; stroke-dasharray: none; stroke-linecap: butt; stroke-dashoffset: 0; stroke-linejoin: miter; stroke-miterlimit: 4; fill: url(#SVGID_linearGradient317_22); fill-rule: nonzero; opacity: 1;"  transform=" translate(-48.13, -14.87)" d="m 51.382 18.337 c -4.3408 -3.1177 -2.278 -2.8282 -6.4974 -6.9404 c 6.3889 2.5786 4.8099 3.349 6.4974 6.9404 z" stroke-linecap="round" />
</g>
		<g transform="matrix(0.52 0 0 0.52 30.93 -63.08)"  >
<path style="stroke: none; stroke-width: 1; stroke-dasharray: none; stroke-linecap: butt; stroke-dashoffset: 0; stroke-linejoin: miter; stroke-miterlimit: 4; fill: rgb(184,129,0); fill-rule: nonzero; opacity: 1;"  transform=" translate(-156.39, -67.41)" d="m 173.25 15.508 c -1.4579 0.004 -2.961 0.0757 -4.457 0.19029 c -2.992 0.22916 -5.922 0.64168 -8.2801 1.1227 c -1.179 0.2405 -2.2215 0.49034 -3.0704 0.76114 s -1.4508 0.44702 -2.1196 1.0466 c -1.6129 1.4461 -2.3739 3.3402 -2.7138 5.2328 s -0.31746 3.8276 -0.31694 5.6705 s -0.031 3.5902 -0.35656 4.9854 s -0.85654 2.3994 -1.9413 3.1587 c -0.5849 0.40946 -2.9554 0.64126 -5.0512 0.41862 s -3.8825 -0.66599 -3.8825 -0.66599 l -0.79235 2.9304 s 1.9794 0.49154 4.3381 0.74211 s 5.1311 0.49392 7.25 -0.98948 c 1.8008 -1.2607 2.7376 -3.0779 3.1694 -4.9284 s 0.41651 -3.7894 0.41599 -5.6514 s 0.007 -3.652 0.27732 -5.1567 s 0.76495 -2.6622 1.7432 -3.5393 c -0.17038 0.15276 0.30964 -0.16339 0.99044 -0.38057 s 1.6154 -0.46097 2.7138 -0.68502 c 2.1968 -0.44809 5.0313 -0.8471 7.8839 -1.0656 s 5.7344 -0.23769 8.0028 0.019 s 3.8123 0.95158 4.0806 1.2939 c 3.5459 4.5246 4.1527 12.335 2.1988 21.749 s -6.3847 20.327 -12.262 30.921 c -11.754 21.187 -31.531 39.039 -45.916 43.744 l 1.0102 2.8733 c 16.125 -5.2748 35.699 -23.596 47.679 -45.19 c 5.9899 -10.797 10.538 -21.927 12.579 -31.758 s 1.678 -18.486 -2.7732 -24.166 c -1.3508 -1.7237 -3.6222 -2.1797 -6.22 -2.4737 c -1.2989 -0.147 -2.7218 -0.21284 -4.1797 -0.20931 z" stroke-linecap="round" />
</g>
		<g transform="matrix(0.52 0 0 0.52 30.98 -63.08)"  >
<radialGradient id="SVGID_c_23" gradientUnits="userSpaceOnUse" gradientTransform="matrix(0.62 -1.93 -1.05 -0.31 657.37 -326.56)"  cx="-273.75" cy="320.53" r="49.711" fx="-273.75" fy="320.53">
<stop offset="0%" style="stop-color:rgb(231,188,119);stop-opacity: 1"/>
<stop offset="100%" style="stop-color:rgb(231,188,119);stop-opacity: 0"/>
</radialGradient>
<path style="stroke: none; stroke-width: 1; stroke-dasharray: none; stroke-linecap: butt; stroke-dashoffset: 0; stroke-linejoin: miter; stroke-miterlimit: 4; fill: url(#SVGID_c_23); fill-rule: nonzero; opacity: 1;"  transform=" translate(-156.48, -67.41)" d="m 174.04 16.123 c 1.5196 -0.004 2.9822 0.0616 4.3361 0.20688 c 2.7078 0.29058 5.0754 0.74131 6.4835 2.4449 c 4.6398 5.6138 5.0176 14.168 2.8907 23.885 s -6.8472 20.717 -13.091 31.389 c -12.487 21.344 -32.827 39.428 -49.635 44.642 l -1.053 -2.8399 c 14.994 -4.6508 35.525 -22.271 47.777 -43.212 c 6.1259 -10.471 10.744 -21.256 12.781 -30.562 s 1.4042 -17.025 -2.2919 -21.497 c -0.27967 -0.33838 -1.8891 -1.0252 -4.2535 -1.2789 s -5.3683 -0.23476 -8.3418 -0.0187 s -5.928 0.61032 -8.2179 1.0532 c -1.1449 0.22144 -2.1191 0.4624 -2.8288 0.67705 s -1.21 0.52713 -1.0324 0.37615 c -1.0197 0.86687 -1.5353 2.0109 -1.817 3.4981 s -0.26897 3.2563 -0.26842 5.0967 s -0.004 3.7568 -0.45426 5.5857 s -1.4266 3.625 -3.3037 4.871 c -2.2087 1.4661 -5.0985 1.2256 -7.5572 0.97797 s -4.5219 -0.73348 -4.5219 -0.73348 l 0.82592 -2.8963 s 1.8624 0.4382 4.047 0.65825 s 4.6556 -0.009 5.2652 -0.41376 c 1.1307 -0.75054 1.7048 -1.7429 2.0442 -3.122 s 0.3722 -3.1061 0.37166 -4.9275 s -0.0446 -3.7339 0.30972 -5.6045 s 1.1475 -3.7427 2.8288 -5.172 c 0.69703 -0.59258 1.3452 -0.76675 2.23 -1.0344 s 1.9508 -0.51459 3.1798 -0.75229 c 2.458 -0.47539 5.5121 -0.88312 8.6308 -1.1096 c 1.5594 -0.11325 3.1468 -0.18458 4.6664 -0.18807 z" stroke-linecap="round" />
</g>
		<g transform="matrix(0.52 0 0 0.52 -28.21 -63.08)"  >
<path style="stroke: none; stroke-width: 1; stroke-dasharray: none; stroke-linecap: butt; stroke-dashoffset: 0; stroke-linejoin: miter; stroke-miterlimit: 4; fill: rgb(184,129,0); fill-rule: nonzero; opacity: 1;"  transform=" translate(-43.23, -67.41)" d="m 26.346 15.508 c -1.4579 -0.004 -2.861 0.0623 -4.1598 0.20931 c -2.5978 0.294 -4.8692 0.75004 -6.22 2.4737 c -4.4512 5.6798 -4.8136 14.335 -2.7732 24.166 s 6.5689 20.961 12.559 31.758 c 11.98 21.595 31.574 39.916 47.699 45.19 l 1.0102 -2.8733 c -14.385 -4.7056 -34.162 -22.557 -45.916 -43.744 c -5.8769 -10.594 -10.308 -21.506 -12.262 -30.921 s -1.3472 -17.225 2.1988 -21.749 c 0.2683 -0.34236 1.8123 -1.0372 4.0806 -1.2939 s 5.1501 -0.23752 8.0028 -0.019 s 5.6871 0.6175 7.8839 1.0656 c 1.0984 0.22405 2.033 0.46785 2.7138 0.68503 s 1.1608 0.53332 0.99044 0.38056 c 0.97822 0.87707 1.4729 2.0346 1.7432 3.5393 s 0.25804 3.2946 0.25752 5.1567 s 0.004 3.801 0.43579 5.6514 s 1.3686 3.6677 3.1694 4.9284 c 2.119 1.4834 4.8913 1.24 7.25 0.98948 s 4.3381 -0.74211 4.3381 -0.74211 l -0.79235 -2.9304 s -1.7867 0.44335 -3.8825 0.66599 s -4.4664 -0.009 -5.0512 -0.41862 c -1.0847 -0.75937 -1.6355 -1.7634 -1.9611 -3.1587 s -0.35708 -3.1426 -0.35656 -4.9854 s 0.0428 -3.7778 -0.29713 -5.6705 s -1.1009 -3.7867 -2.7138 -5.2328 c -0.6687 -0.59954 -1.2905 -0.77577 -2.1394 -1.0466 s -1.8715 -0.52064 -3.0506 -0.76114 c -2.3581 -0.48099 -5.2881 -0.89351 -8.2801 -1.1227 c -1.496 -0.11458 -3.0189 -0.18676 -4.4768 -0.19029 z" stroke-linecap="round" />
</g>
		<g transform="matrix(0.52 0 0 0.52 -27.54 -62.88)"  >
<radialGradient id="SVGID_d_24" gradientUnits="userSpaceOnUse" gradientTransform="matrix(-0.62 -1.93 1.05 -0.31 -456.37 -327.18)"  cx="-273.75" cy="320.53" r="49.711" fx="-273.75" fy="320.53">
<stop offset="0%" style="stop-color:rgb(231,188,119);stop-opacity: 1"/>
<stop offset="100%" style="stop-color:rgb(231,188,119);stop-opacity: 0"/>
</radialGradient>
<path style="stroke: none; stroke-width: 1; stroke-dasharray: none; stroke-linecap: butt; stroke-dashoffset: 0; stroke-linejoin: miter; stroke-miterlimit: 4; fill: url(#SVGID_d_24); fill-rule: nonzero; opacity: 1;"  transform=" translate(-44.51, -67.79)" d="m 26.954 15.508 c -1.5196 -0.004 -2.9822 0.0616 -4.3361 0.20688 c -2.7078 0.29058 -5.0754 0.74132 -6.4835 2.4449 c -4.6398 5.6138 -5.0176 14.168 -2.8907 23.885 s 6.8472 20.717 13.091 31.389 c 12.487 21.344 32.827 41.428 49.635 46.642 l 1.053 -2.8399 c -14.994 -4.6508 -35.525 -24.271 -47.777 -45.212 c -6.1259 -10.471 -10.744 -21.256 -12.781 -30.562 s -1.4042 -17.025 2.2919 -21.497 c 0.27966 -0.33837 1.8891 -1.0252 4.2535 -1.2789 s 5.3683 -0.23476 8.3418 -0.0188 s 5.928 0.61032 8.2179 1.0532 c 1.1449 0.22144 2.1191 0.4624 2.8288 0.67705 s 1.21 0.52713 1.0324 0.37615 c 1.0197 0.86687 1.5353 2.0109 1.817 3.4981 s 0.26897 3.2563 0.26842 5.0967 s 0.004 3.7568 0.45426 5.5857 s 1.4266 3.625 3.3037 4.871 c 2.2087 1.4661 5.0986 1.2256 7.5572 0.97797 s 4.5219 -0.73348 4.5219 -0.73348 l -0.82592 -2.8963 s -1.8624 0.4382 -4.047 0.65825 s -4.6556 -0.009 -5.2652 -0.41376 c -1.1307 -0.75054 -1.7048 -1.7429 -2.0442 -3.122 s -0.37221 -3.1061 -0.37166 -4.9275 s 0.0446 -3.7339 -0.30972 -5.6045 s -1.1476 -3.7427 -2.8288 -5.172 c -0.69703 -0.59257 -1.3452 -0.76675 -2.23 -1.0344 s -1.9508 -0.51459 -3.1798 -0.75229 c -2.458 -0.47539 -5.5121 -0.88312 -8.6308 -1.1096 c -1.5594 -0.11325 -3.1468 -0.18458 -4.6664 -0.18808 z" stroke-linecap="round" />
</g>
		<g transform="matrix(0.52 0 0 0.52 1.89 35.41)"  >
<path style="stroke: none; stroke-width: 1; stroke-dasharray: none; stroke-linecap: butt; stroke-dashoffset: 0; stroke-linejoin: miter; stroke-miterlimit: 4; fill: rgb(49,14,10); fill-rule: nonzero; opacity: 1;"  transform=" translate(-100.82, -255.86)" d="m 46.35 249.57 l 107.05 -0.7859 l 4.4079 14.147 h -113.98 z" stroke-linecap="round" />
</g>
		<g transform="matrix(0.52 0 0 0.52 1.35 -80.17)"  >
<linearGradient id="SVGID_g_25" gradientUnits="userSpaceOnUse" gradientTransform="matrix(1 0 0 1 0 0)"  x1="107.5" y1="28" x2="106.5" y2="36.5">
<stop offset="0%" style="stop-color:rgb(128,77,0);stop-opacity: 1"/>
<stop offset="100%" style="stop-color:rgb(185,131,4);stop-opacity: 1"/>
</linearGradient>
<path style="stroke: none; stroke-width: 1; stroke-dasharray: none; stroke-linecap: butt; stroke-dashoffset: 0; stroke-linejoin: miter; stroke-miterlimit: 4; fill: url(#SVGID_g_25); fill-rule: nonzero; opacity: 1;"  transform=" translate(-99.8, -34.73)" d="m 94.944 30.73 l 0.0792 0.19028 c -5.0483 0.11159 -10.94 0.2564 -14.698 0.41863 c -8.8353 0.38138 -26.247 3.6915 -26.247 3.6915 l -1.2876 3.6915 s 18.718 -3.314 28.188 -3.6915 c 6.3425 -0.25282 14.721 -0.75449 18.838 -1.0085 c 4.1297 0.25472 12.486 0.75608 18.818 1.0085 c 9.4701 0.37749 28.168 3.6915 28.168 3.6915 l -1.2678 -3.6915 s -17.411 -3.3101 -26.247 -3.6915 c -3.7584 -0.16223 -9.6499 -0.30704 -14.698 -0.41863 l 0.0792 -0.19028 l -4.8532 0.0951 c -1.8277 -0.0347 -4.873 -0.0951 -4.873 -0.0951 z" stroke-linecap="round" />
</g>
		<g transform="matrix(0.52 0 0 0.52 1.36 -55.06)"  >
<linearGradient id="SVGID_h_26" gradientUnits="userSpaceOnUse" gradientTransform="matrix(1 0 0 1 0 0)"  x1="88.013" y1="41.805" x2="94.416" y2="129.76">
<stop offset="0%" style="stop-color:rgb(184,129,0);stop-opacity: 1"/>
<stop offset="100%" style="stop-color:rgb(254,205,123);stop-opacity: 1"/>
</linearGradient>
<path style="stroke: none; stroke-width: 1; stroke-dasharray: none; stroke-linecap: butt; stroke-dashoffset: 0; stroke-linejoin: miter; stroke-miterlimit: 4; fill: url(#SVGID_h_26); fill-rule: nonzero; opacity: 1;"  transform=" translate(-99.81, -82.76)" d="m 97.499 33.813 v 0.19029 c -13.348 0.34054 -25.524 -0.8199 -43.421 5.347 c 0 0 -1.4223 31.089 3.209 47.971 c 3.4542 12.591 9.3359 27.351 19.195 36.287 c 14.011 10.988 34.003 10.628 46.63 0 c 9.8588 -8.9358 15.76 -23.696 19.215 -36.287 c 4.6314 -16.881 3.209 -47.971 3.209 -47.971 c -17.906 -6.17 -30.085 -5.0238 -43.441 -5.366 v -0.17126 l -2.2978 0.11417 c -0.75725 -0.0304 -1.5295 -0.0696 -2.2978 -0.11417 z" stroke-linecap="round" />
</g>
		<g transform="matrix(0.52 0 0 0.52 1.02 -8.39)"  >
<radialGradient id="SVGID_e_27" gradientUnits="userSpaceOnUse" gradientTransform="matrix(-0.1 0 0 -0.7 83.2 487.13)"  cx="-188.9" cy="456.47" r="62.047" fx="-188.9" fy="456.47">
<stop offset="0%" style="stop-color:rgb(246,195,116);stop-opacity: 1"/>
<stop offset="100%" style="stop-color:rgb(184,129,0);stop-opacity: 1"/>
</radialGradient>
<path style="stroke: none; stroke-width: 1; stroke-dasharray: none; stroke-linecap: butt; stroke-dashoffset: 0; stroke-linejoin: miter; stroke-miterlimit: 4; fill: url(#SVGID_e_27); fill-rule: nonzero; opacity: 1;"  transform=" translate(-99.17, -172.04)" d="m 91.761 128.65 l 1.6571 8.0025 l 1.6571 18.482 l -4.9714 4.3061 l 3.861 4.9349 s 4.8772 23.37 -5.4561 32.212 c -2.353 2.0136 -2.1397 -1.1752 -2.1397 -1.1752 l -5.7546 3.5074 l -15.368 7.9453 c 10.325 10.323 22.174 8.7471 33.911 8.0406 c 11.738 0.70646 23.603 2.2823 33.928 -8.0406 l -15.368 -7.9453 l -5.7546 -3.5074 s 0.21327 3.1887 -2.1397 1.1752 c -10.333 -8.8427 -5.4561 -32.212 -5.4561 -32.212 l 3.8609 -4.9349 l -4.9714 -4.3061 l 1.6572 -18.482 l 1.6571 -8.0025 c -13.445 5.1843 -4.5611 2.2078 -14.812 0 z" stroke-linecap="round" />
</g>
		<g transform="matrix(0.52 0 0 0.52 1.6 15.43)"  >
<path style="stroke: none; stroke-width: 1; stroke-dasharray: none; stroke-linecap: butt; stroke-dashoffset: 0; stroke-linejoin: miter; stroke-miterlimit: 4; fill: rgb(58,7,4); fill-rule: nonzero; opacity: 1;"  transform=" translate(-100.27, -217.62)" d="m 65.764 206.6 l -12.82 0.23685 l -3.8439 22.136 c 36.987 1.3293 64.854 0.2823 102.33 0 l -5.7649 -22.136 c -5.2385 -0.10412 -17.166 0.12787 -12.32 -1.2368 c -19.431 10.211 -52.627 13.288 -67.586 1 z" stroke-linecap="round" />
</g>
		<g transform="matrix(0.52 0 0 0.52 1.53 4.36)"  >
<path style="stroke: none; stroke-width: 1; stroke-dasharray: none; stroke-linecap: butt; stroke-dashoffset: 0; stroke-linejoin: miter; stroke-miterlimit: 4; fill: rgb(128,77,0); fill-rule: nonzero; opacity: 1;"  transform=" translate(-100.13, -196.44)" d="m 90.378 193.01 c -2.6486 0.72535 -4.2902 1.7443 -4.2902 2.8733 c 0 2.2064 6.2956 3.996 14.054 3.996 s 14.036 -1.7895 14.036 -3.996 c 0 -1.129 -1.6416 -2.1479 -4.2902 -2.8733 c -0.51543 0.44332 -1.0948 0.85369 -1.7383 1.2178 c 1.1997 0.46694 1.9232 1.0333 1.9232 1.6555 c 0 1.5592 -4.4476 2.8162 -9.9303 2.8162 s -9.9303 -1.257 -9.9303 -2.8162 c 0 -0.62219 0.70504 -1.1885 1.9047 -1.6555 c -0.64341 -0.36413 -1.2228 -0.7745 -1.7383 -1.2178 z" stroke-linecap="round" />
</g>
		<g transform="matrix(0.33 0 0 0.32 -12.84 -55.57)"  >
<path style="stroke: none; stroke-width: 1; stroke-dasharray: none; stroke-linecap: butt; stroke-dashoffset: 0; stroke-linejoin: miter; stroke-miterlimit: 4; fill: rgb(128,77,0); fill-rule: nonzero; opacity: 1;"  transform=" translate(615.36, -306.63)" d="m -592.13 378.35 c -24.342 -21.175 -40.342 -23.958 -46.467 -141.42 l 6.0609 -2.0203 c 0.99724 55.244 -7.934 101.35 40.406 143.44 z" stroke-linecap="round" />
</g>
		<g transform="matrix(0.33 0 0 0.32 14.27 -53.8)"  >
<path style="stroke: none; stroke-width: 1; stroke-dasharray: none; stroke-linecap: butt; stroke-dashoffset: 0; stroke-linejoin: miter; stroke-miterlimit: 4; fill: rgb(128,77,0); fill-rule: nonzero; opacity: 1;"  transform=" translate(533.55, -312.18)" d="m -561.83 388.45 c 24.342 -21.175 50.443 -33.049 56.569 -150.51 l -6.0609 -2.0203 c -0.99724 55.244 -2.1675 110.44 -50.508 152.53 z" stroke-linecap="round" />
</g>
		<g transform="matrix(0.33 0 0 0.32 1.38 -66.01)"  >
<radialGradient id="SVGID_b-8_28" gradientUnits="userSpaceOnUse" gradientTransform="matrix(-1.12 0.06 -0.09 -2.5 -764.72 1065.3)"  cx="-197.15" cy="316.24" r="42.421" fx="-197.15" fy="316.24">
<stop offset="0%" style="stop-color:rgb(220,172,98);stop-opacity: 1"/>
<stop offset="100%" style="stop-color:rgb(184,129,0);stop-opacity: 1"/>
</radialGradient>
<path style="stroke: none; stroke-width: 1; stroke-dasharray: none; stroke-linecap: butt; stroke-dashoffset: 0; stroke-linejoin: miter; stroke-miterlimit: 4; fill: url(#SVGID_b-8_28); fill-rule: nonzero; opacity: 1;"  transform=" translate(572.44, -273.83)" d="m -614.36 236.18 l 13.132 83.573 l 60.609 -1.1448 l 10.102 -84.718 c -29.798 -11.819 -56.632 -3.4862 -83.843 2.2897 z" stroke-linecap="round" />
</g>
		<g transform="matrix(0.52 0 0 0.52 1.02 -8.66)"  >
<radialGradient id="SVGID_f_29" gradientUnits="userSpaceOnUse" gradientTransform="matrix(0 0.42 -0.75 0 403.49 210.47)"  cx="-192.94" cy="403.74" r="62.047" fx="-192.94" fy="403.74">
<stop offset="0%" style="stop-color:rgb(252,202,119);stop-opacity: 1"/>
<stop offset="100%" style="stop-color:rgb(252,202,119);stop-opacity: 0"/>
</radialGradient>
<path style="stroke: none; stroke-width: 1; stroke-dasharray: none; stroke-linecap: butt; stroke-dashoffset: 0; stroke-linejoin: miter; stroke-miterlimit: 4; fill: url(#SVGID_f_29); fill-rule: nonzero; opacity: 1;"  transform=" translate(-99.17, -171.53)" d="m 90.579 127.65 l 1.9215 8.092 l 1.9214 18.689 l -5.7644 4.3542 l 4.4768 4.99 s 5.6348 21.095 -6.9925 30.518 c -2.8754 2.1458 -2.6148 -1.2523 -2.6148 -1.2523 l -7.0321 3.7377 l -16.659 9.9608 c 11.972 10.438 25.71 8.8449 39.32 8.1305 c 13.611 0.71436 27.368 2.3078 39.34 -8.1305 l -16.659 -9.9608 l -7.0321 -3.7377 s 0.26058 3.3981 -2.6148 1.2523 c -12.627 -9.4235 -6.9925 -30.518 -6.9925 -30.518 l 4.4768 -4.99 l -5.7644 -4.3542 l 1.9215 -18.689 l 1.9214 -8.092 c -15.589 5.2422 -5.2886 2.2325 -17.174 0 z" stroke-linecap="round" />
</g>
		<g transform="matrix(0.52 0 0 0.52 1.66 28.15)"  >
<linearGradient id="SVGID_i_30" gradientUnits="userSpaceOnUse" gradientTransform="matrix(1 0 0 1 0 0)"  x1="65.269" y1="231.06" x2="64.283" y2="284">
<stop offset="0%" style="stop-color:rgb(105,32,23);stop-opacity: 1"/>
<stop offset="100%" style="stop-color:rgb(70,21,15);stop-opacity: 1"/>
</linearGradient>
<path style="stroke: none; stroke-width: 1; stroke-dasharray: none; stroke-linecap: butt; stroke-dashoffset: 0; stroke-linejoin: miter; stroke-miterlimit: 4; fill: url(#SVGID_i_30); fill-rule: nonzero; opacity: 1;"  transform=" translate(-100.39, -241.96)" d="m 50.103 227.87 h 100.57 a 0.50903 0.50903 0 0 1 0.50903 0.50903 v 27.161 a 0.50903 0.50903 0 0 1 -0.50903 0.5091 h -100.57 a 0.50903 0.50903 0 0 1 -0.50903 -0.5091 v -27.161 a 0.50903 0.50903 0 0 1 0.50903 -0.50903" stroke-linecap="round" />
</g>
		<g transform="matrix(0.52 0 0 0.52 1.81 41.58)"  >
<path style="stroke: none; stroke-width: 1; stroke-dasharray: none; stroke-linecap: butt; stroke-dashoffset: 0; stroke-linejoin: miter; stroke-miterlimit: 4; fill: rgb(105,32,23); fill-rule: nonzero; opacity: 1;"  transform=" translate(-100.68, -267.65)" d="m 43.69 262.31 h 113.98 v 10.687 h -113.98 z" stroke-linecap="round" />
</g>
		<g transform="matrix(0.52 0 0 0.52 0.67 28.82)"  >
<linearGradient id="SVGID_j_31" gradientUnits="userSpaceOnUse" gradientTransform="matrix(1 0 0 1.22 0 -965.81)"  x1="98.5" y1="993.86" x2="64.5" y2="995.36">
<stop offset="0%" style="stop-color:rgb(240,190,99);stop-opacity: 1"/>
<stop offset="100%" style="stop-color:rgb(184,129,0);stop-opacity: 1"/>
</linearGradient>
<path style="stroke: none; stroke-width: 1; stroke-dasharray: none; stroke-linecap: butt; stroke-dashoffset: 0; stroke-linejoin: miter; stroke-miterlimit: 4; fill: url(#SVGID_j_31); fill-rule: nonzero; opacity: 1;"  transform=" translate(-98.5, -243.25)" d="m 73.006 232 c 0.0042 0.043 0.03324 0.083 0.03324 0.12641 c 0 1.994 2.0594 3.6404 -3.0397 3.8869 v 6.8574 c 0 0.14259 0.23184 0.25282 0.53175 0.25282 c -0.29991 0 -0.53175 0.10702 -0.53175 0.25281 v 7.0154 c 5.0991 0.2521 3.0397 1.9425 3.0397 3.9818 c 0 0.044 -0.03007 0.083 -0.03324 0.1264 h 50.682 c -0.0633 -0.169 -0.13295 -0.3463 -0.13295 -0.5214 c 0 -1.7131 -0.88561 -3.1523 3.4444 -3.6658 v -6.9364 c 0 -0.14582 -0.23184 -0.25281 -0.53175 -0.25281 c 0.29991 0 0.53175 -0.11019 0.53175 -0.25282 v -6.7784 c -4.3301 -0.50201 -3.4444 -1.9117 -3.4444 -3.5867 c 0 -0.1713 0.0696 -0.34032 0.13295 -0.50561 z" stroke-linecap="round" />
</g>
		<g transform="matrix(0.52 0 0 0.52 -3.77 -16.91)"  >
<path style="stroke: rgb(0,0,0); stroke-width: 1; stroke-dasharray: none; stroke-linecap: butt; stroke-dashoffset: 0; stroke-linejoin: miter; stroke-miterlimit: 4; fill: none; fill-rule: nonzero; opacity: 0.22439;"  transform=" translate(-90, -155.75)" d="m 95.5 194 l 2.5 -11.5 l 1 -16.5 l -3 -4.5 l 2 -3 l -2.5 -26.5 c -8.5345 -2.6126 -12.614 -7.8982 -14.5 -14.5" stroke-linecap="round" />
</g>
		<g transform="matrix(0.52 0 0 -0.18 -0.33 46.03)"  >
<path style="stroke: none; stroke-width: 1; stroke-dasharray: none; stroke-linecap: butt; stroke-dashoffset: 0; stroke-linejoin: miter; stroke-miterlimit: 4; fill: rgb(45,45,45); fill-rule: nonzero; opacity: 1;"  transform=" translate(-98, -1025.13)" d="m 13.5 1025.9 l 31 -2.86 l 114.5 -0.66 l 23.5 3.08 l -20 2.42 h -113.5 z" stroke-linecap="round" />
</g>
		<g transform="matrix(1 0 0 1 -11.05 28.57)"  >
<path style="stroke: none; stroke-width: 1; stroke-dasharray: none; stroke-linecap: butt; stroke-dashoffset: 0; stroke-linejoin: miter; stroke-miterlimit: 4; fill: rgb(0,0,0); fill-rule: nonzero; opacity: 1;"  transform=" translate(-111.29, -163.01)" d="m 111.65 160.55 q 0.41275 0 0.72919 0.22013 q 0.31645 0.21326 0.46779 0.5297 q 0.15822 0.31644 0.1651 0.6604 q 0 0.3302 -0.0825 0.66728 q -0.0757 0.33708 -0.17198 0.57097 q -0.0963 0.22701 -0.18574 0.4953 q -0.0825 0.26141 -0.0894 0.46778 q -0.007 0.0482 -0.007 0.0963 q 0 0.19262 0.11695 0.39212 q 0.12382 0.19949 0.28892 0.2958 q 0.14447 0.0825 0.26829 0.0482 q 0.13071 -0.0344 0.19262 -0.0963 q 0.0688 -0.0619 0.1651 -0.15135 q 0.0963 -0.0894 0.18574 -0.11006 q 0.13758 -0.0413 0.14446 0.0757 q 0.0138 0.11694 -0.0757 0.19261 q -0.0688 0.0619 -0.18574 0.17886 q -0.11695 0.11695 -0.1651 0.15822 q -0.0481 0.0413 -0.1307 0.0963 q -0.0826 0.0482 -0.1651 0.0757 q -0.25453 0.0688 -0.44715 -0.0206 q -0.18574 -0.0894 -0.28893 -0.29581 q -0.0963 -0.20637 -0.14446 -0.44027 q -0.0482 -0.23389 -0.0482 -0.48154 q 0.007 -0.3302 0.17886 -1.025 q 0.17885 -0.70168 0.14446 -1.0869 q -0.0482 -0.53658 -0.35772 -0.89429 q -0.30268 -0.3646 -0.70167 -0.3646 q -0.35084 0 -0.63977 0.13758 q -0.28204 0.13071 -0.48154 0.37148 q -0.19262 0.24077 -0.32332 0.53657 q -0.1307 0.29581 -0.21325 0.6604 q -0.0963 0.54346 -0.0619 0.81862 q 0.0344 0.27517 0.0825 0.72232 q 0.0482 0.44714 0.007 0.83238 q -0.007 0.11694 -0.0825 0.25453 q -0.0688 0.1307 -0.1651 0.19261 q -0.11694 0.0757 -0.32332 0.11007 q -0.19949 0.0344 -0.35771 0.007 q -0.15823 -0.0275 -0.15135 -0.11695 q 0.0138 -0.0894 0.0825 -0.12382 q 0.0757 -0.0344 0.1651 -0.0275 q 0.0894 0.007 0.17198 -0.0275 q 0.0894 -0.0413 0.11695 -0.1307 q 0.0825 -0.24077 0.055 -0.73607 q -0.0206 -0.50218 -0.0482 -0.90117 q -0.0275 -0.40587 0.10319 -0.87366 q 0.27516 -0.81862 0.78422 -1.3139 t 1.2039 -0.626 q 0.13758 -0.0206 0.27516 -0.0206 z m -1.1763 1.8505 q 0.0688 -0.18574 0.26141 -0.32332 q 0.19262 -0.13759 0.39212 -0.15135 q 0.2614 -0.0206 0.52281 0.10319 q 0.26141 0.12383 0.26141 0.31644 q 0 0.0894 -0.0963 0.11695 q -0.0894 0.0275 -0.15822 -0.007 q -0.0275 -0.0138 -0.27517 -0.1651 q -0.24077 -0.15134 -0.37147 -0.13758 q -0.14446 0.0137 -0.23389 0.15822 q -0.0825 0.13758 -0.0757 0.30956 q 0.0138 0.17198 0.11694 0.27517 q 0.0757 0.0757 0.22702 0.22013 q 0.15822 0.13758 0.22701 0.21325 q 0.0688 0.0688 0.15822 0.19262 q 0.0963 0.12383 0.13758 0.26141 q 0.0413 0.1307 0.0482 0.30268 q 0 0.27517 -0.1995 0.48842 q -0.19262 0.20638 -0.46778 0.22702 q -0.055 0 -0.11695 0 q -0.27517 0 -0.54345 -0.0757 q -0.0757 -0.0344 -0.0757 -0.11695 q 0 -0.0619 0.0481 -0.10319 q 0.0482 -0.0344 0.31644 0.0275 q 0.27517 0.055 0.35084 0 q 0.0825 -0.0619 0.13758 -0.17198 q 0.055 -0.11695 0.055 -0.22013 q 0 -0.0757 -0.0206 -0.15135 q -0.0206 -0.15134 -0.13758 -0.28204 q -0.11695 -0.13758 -0.26829 -0.27517 q -0.15134 -0.14446 -0.22014 -0.26829 q -0.0894 -0.18573 -0.0894 -0.38523 t 0.0894 -0.37835 z" stroke-linecap="round" />
</g>
		<g transform="matrix(1 0 0 1 -6.9 29.09)"  >
<path style="stroke: none; stroke-width: 1; stroke-dasharray: none; stroke-linecap: butt; stroke-dashoffset: 0; stroke-linejoin: miter; stroke-miterlimit: 4; fill: rgb(0,0,0); fill-rule: nonzero; opacity: 1;"  transform=" translate(-115.45, -163.53)" d="m 114 162.13 q -0.13758 -0.0206 -0.1651 -0.0619 q -0.0275 -0.0482 0.0413 -0.24077 q 0.0757 -0.19262 0.14446 -0.21326 q 0.0344 -0.007 0.0413 0.0413 q 0.007 0.0482 0 0.11006 q -0.007 0.0619 0.007 0.11695 q 0.0206 0.055 0.0757 0.055 q 0.11695 0 0.48155 0.007 q 0.36459 0 0.48842 0 q 0.11006 0 0.11694 0.14446 q 0 0.0344 -0.17886 0.26829 q -0.17885 0.22701 -0.36459 0.44027 l -0.17886 0.20637 h 0.68104 q 0.0757 0 0.0757 0.0963 q 0.007 0.0963 -0.0344 0.15822 q -0.0275 0.0619 -0.15134 0.30957 q -0.12382 0.24077 -0.17886 0.37147 q -0.055 0.12383 -0.11694 0.32332 q -0.0619 0.1995 -0.0619 0.35772 q 0 0.0138 0 0.0275 q 0 0.1307 0.0757 0.28204 q 0.0826 0.14446 0.1995 0.22013 q 0.18574 0.11695 0.41275 0.11695 q 0.17198 0 0.32332 -0.0688 q 0.29581 -0.15134 0.57785 -0.91493 q 0.0894 -0.29581 0.1651 -0.72231 q 0.0825 -0.42651 0.10319 -0.7292 q 0.007 -0.0757 0.007 -0.15134 q 0 -0.3302 -0.0619 -0.65352 h -0.11695 q -0.0275 0 -0.055 -0.0344 q -0.0206 -0.0413 -0.0138 -0.0757 q 0.0138 -0.0344 0.0688 -0.0344 h 0.59161 q 0.0619 0 0.0688 0.0344 q 0.0138 0.0344 -0.0138 0.0757 q -0.0275 0.0344 -0.055 0.0344 h -0.11007 q 0.0619 0.42651 0.0619 0.85302 q 0 0.0413 0 0.0757 q -0.007 0.37147 -0.13759 0.86677 q -0.12382 0.48843 -0.28892 0.81175 q -0.11007 0.19949 -0.33708 0.41275 q -0.22702 0.20637 -0.43339 0.30268 q -0.24765 0.10319 -0.50906 0.10319 q -0.17886 0 -0.34396 -0.0482 q -0.23389 -0.055 -0.40587 -0.2614 q -0.1651 -0.21326 -0.1651 -0.45403 q 0 -0.0206 0.007 -0.0413 q 0 -0.22702 0.12383 -0.58473 q 0.1307 -0.3646 0.25452 -0.61225 l 0.12383 -0.24765 h -0.74295 q -0.055 0 -0.0757 -0.055 q -0.0206 -0.055 0.007 -0.12383 q 0.0138 -0.0344 0.19949 -0.26141 q 0.19262 -0.22701 0.37836 -0.42651 l 0.17886 -0.20637 z" stroke-linecap="round" />
</g>
		<g transform="matrix(1 0 0 1 -4.38 28.96)"  >
<path style="stroke: none; stroke-width: 1; stroke-dasharray: none; stroke-linecap: butt; stroke-dashoffset: 0; stroke-linejoin: miter; stroke-miterlimit: 4; fill: rgb(0,0,0); fill-rule: nonzero; opacity: 1;"  transform=" translate(-117.96, -163.4)" d="m 118.44 161.11 q 0.19261 0 0.23389 0.14446 q 0.0481 0.14447 -0.11695 0.3646 q -0.0825 0.0963 -0.33708 0.37148 q -0.25453 0.26828 -0.43338 0.47466 q -0.17886 0.20637 -0.17198 0.26141 q 0 0.0688 0.37835 0.42651 q 0.37836 0.35083 0.38523 0.41962 q 0 0.0757 -0.34395 0.34396 q -0.34396 0.26141 -0.35084 0.31644 q -0.0206 0.0688 0.17886 0.30957 q 0.19949 0.24077 0.39899 0.45402 l 0.20637 0.20638 t 0.007 -0.007 t 0.0275 -0.0206 q 0.0275 -0.0206 0.0482 -0.0344 q 0.0206 -0.0138 0.0482 -0.0275 q 0.0275 -0.0206 0.0482 -0.0275 q 0.0206 -0.007 0.0413 -0.007 q 0.0206 -0.007 0.0344 0.007 q 0.0688 0.0757 -0.24077 0.35084 q -0.30956 0.26829 -0.37835 0.24077 q -0.0482 -0.0344 -0.0344 -0.0825 q 0.0206 -0.0481 0.0688 -0.0963 l 0.0482 -0.0481 q -0.0413 -0.0344 -0.11007 -0.0894 q -0.0619 -0.0619 -0.23389 -0.22013 q -0.1651 -0.15823 -0.30268 -0.28893 q -0.13071 -0.13758 -0.24078 -0.27517 q -0.11006 -0.13758 -0.11006 -0.19949 q -0.0138 -0.0963 0.15134 -0.24765 q 0.17198 -0.15822 0.34396 -0.29581 q 0.17198 -0.13758 0.17198 -0.18573 q 0.007 -0.055 -0.17198 -0.21326 q -0.17198 -0.15822 -0.34396 -0.3302 q -0.17198 -0.17886 -0.17198 -0.26829 q 0.007 -0.0963 0.28893 -0.40587 q 0.28892 -0.30956 0.57785 -0.60536 q 0.2958 -0.29581 0.30268 -0.35084 q 0.007 -0.0413 -0.0206 -0.13759 q -0.0275 -0.10318 -0.0138 -0.15822 q 0.0206 -0.0619 0.13071 -0.0619 z" stroke-linecap="round" />
</g>
		<g transform="matrix(1 0 0 1 -1.97 29.36)"  >
<path style="stroke: none; stroke-width: 1; stroke-dasharray: none; stroke-linecap: butt; stroke-dashoffset: 0; stroke-linejoin: miter; stroke-miterlimit: 4; fill: rgb(0,0,0); fill-rule: nonzero; opacity: 1;"  transform=" translate(-120.37, -163.8)" d="m 119.59 161.78 q 0.0619 0 0.1651 0 q 0.18573 0 0.24765 0.007 q 0.0688 0.007 0.0688 0.0481 q 0.007 0.055 -0.055 0.0757 q -0.0619 0.0137 -0.13071 0.0206 q -0.0688 0 -0.0757 0.0275 l -0.055 0.57785 l 1.4377 -0.1651 q 0.0413 -0.55033 0.15822 -0.61225 q 0.0688 -0.0344 0.13759 -0.0344 q 0.0757 0 0.14446 0.0344 q 0.0894 0.0344 0.0275 0.42651 q -0.13759 1.1488 -0.39212 2.2701 q -0.0275 0.0894 -0.28204 0.11694 q -0.96996 0.0894 -1.2658 0.26141 q -0.18574 0.10319 -0.43339 0.35084 q -0.24077 0.24077 -0.19261 0.35772 q 0.0344 0.0825 0.12382 0.11006 q 0.0894 0.0275 0.1651 0.0138 q 0.0825 -0.0138 0.12383 -0.0482 q 0.0619 -0.0413 -0.007 -0.15822 q -0.0619 -0.11007 0.007 -0.18574 q 0.0344 -0.0413 0.21325 -0.007 q 0.17886 0.0275 0.20638 0.11007 q 0.0482 0.12382 -0.13759 0.26141 q -0.18573 0.14446 -0.37147 0.19949 q -0.10319 0.0413 -0.21326 0.0413 q -0.1651 0 -0.2958 -0.0894 q -0.0688 -0.0413 -0.11695 -0.12383 q -0.0413 -0.0826 -0.0413 -0.15822 q 0 -0.11007 0.0619 -0.19949 q 0.0963 -0.18574 0.37836 -0.35772 q 0.28204 -0.17886 0.5916 -0.29581 q 0.20638 -0.0688 0.50218 -0.1307 q 0.30269 -0.0688 0.44715 -0.11695 q 0.14446 -0.055 0.1651 -0.14446 q 0.11695 -0.44027 0.17198 -0.89429 l 0.10319 -0.79798 q -0.90805 0.11694 -1.4102 0.17198 q -0.0413 0.65352 -0.11007 0.74295 q -0.0688 0.0963 -0.19262 0.0688 q -0.11694 -0.0344 -0.11694 -0.13759 q 0.0275 -0.64664 0.0481 -1.0181 q 0.0275 -0.37836 0.0275 -0.42651 q -0.007 -0.0413 -0.0688 -0.0206 q -0.0619 0.0138 -0.13759 0 q -0.0757 -0.0138 -0.0757 -0.0963 q 0 -0.0757 0.45403 -0.0757 z m 2.3596 1.9399 h -0.007 q 0.0619 0.007 0.0344 0.26141 q -0.0206 0.1651 -0.11695 0.19261 q -0.0963 0.0275 -0.1651 -0.11694 q -0.0138 -0.0344 -0.0138 -0.0757 q 0 -0.11007 0.0757 -0.18574 q 0.0757 -0.0757 0.18573 -0.0757 q 0 0 0.007 0 z" stroke-linecap="round" />
</g>
		<g transform="matrix(1 0 0 1 2.13 28.68)"  >
<path style="stroke: none; stroke-width: 1; stroke-dasharray: none; stroke-linecap: butt; stroke-dashoffset: 0; stroke-linejoin: miter; stroke-miterlimit: 4; fill: rgb(0,0,0); fill-rule: nonzero; opacity: 1;"  transform=" translate(-124.47, -163.12)" d="m 123.19 160.55 q 0.25453 0 0.35772 0.0344 q 0.10319 0.0275 0.1995 0.17885 q 0.0963 0.15135 0.17198 0.30269 q 0.0825 0.14446 0.17198 0.3302 q 0.0894 0.18574 0.15822 0.31644 q 0.0688 0.0619 0.1651 0.0619 q 0.10318 0 0.17198 -0.0757 q 0.85301 -1.1076 1.0594 -1.1488 q 0.23389 -0.0206 0.46778 -0.0206 q 0.24077 0 0.47466 0.0206 q 0.055 0.007 0.11007 0.007 q 0.0619 0 0.0757 0.007 q 0.0206 0 0.0275 0.0206 q 0.0138 0.0138 0.0138 0.055 q 0 0.13758 -0.10319 0.17886 q -0.10319 0.0413 -0.22013 0.0206 q -0.11007 -0.0206 -0.17886 0 q 0 3.1438 -0.0826 3.6184 q -0.0482 0.24765 -0.53658 0.24077 q -0.055 -0.007 -0.15134 0 q -0.0963 0.007 -0.1651 0.007 q -0.0619 0 -0.1307 -0.007 q -0.0619 -0.007 -0.0963 -0.0344 q -0.0344 -0.0344 -0.0275 -0.0894 q 0.007 -0.0619 0.0825 -0.0894 q 0.0757 -0.0275 0.1651 -0.0344 q 0.0963 -0.007 0.17886 -0.0619 q 0.0825 -0.055 0.10319 -0.17198 q 0.0482 -0.31644 0.0688 -0.79799 q 0.0275 -0.48154 0.0413 -1.1351 q 0.0138 -0.6604 0.0275 -0.91493 v -0.54345 q -0.11695 0.055 -0.25453 0.1651 q -0.13758 0.11006 -0.21325 0.21325 q -0.13071 0.1651 -0.53658 0.6948 q -0.39899 0.52281 -0.53657 0.68103 q -0.0413 0.055 -0.11007 0.055 q -0.0688 0 -0.11007 -0.055 l -0.85301 -1.651 q -0.0138 2.0982 -0.0413 4.0725 q 0 0.1995 0.17198 0.23389 q 0.19262 0.0413 0.30956 -0.17197 q 0.0344 -0.055 0.055 -0.12383 q 0.0413 -0.1307 0.0413 -0.26141 q 0.007 -0.1307 -0.0413 -0.17198 q -0.13759 -0.0825 -0.13759 -0.23389 q 0 -0.28205 0.24765 -0.28205 q 0.17198 0 0.22014 0.15823 q 0.0482 0.15134 0.0413 0.53657 q -0.007 0.54346 -0.63288 0.92181 q -0.15134 0.11007 -0.34396 0.11007 q -0.17886 0 -0.3302 -0.10319 q -0.0825 -0.0482 -0.12383 -0.17886 q -0.0344 -0.1307 -0.0344 -0.28205 q 0.007 -0.15134 0.007 -0.32332 q 0.0138 -0.36459 0.0344 -1.3552 t 0.0275 -1.8024 l 0.0138 -0.81174 q -0.007 0 -0.0206 0 q -0.0138 0 -0.0481 0.007 q -0.0344 0 -0.0757 0 q -0.0344 0 -0.0825 0 q -0.0482 0 -0.0894 0 q -0.0413 -0.007 -0.0825 -0.0138 q -0.0413 -0.007 -0.0757 -0.0206 q -0.0275 -0.0138 -0.0482 -0.0344 q -0.0138 -0.0275 -0.0138 -0.055 q 0 -0.055 0.0206 -0.0894 t 0.0619 -0.055 q 0.0413 -0.0275 0.10319 -0.0344 q 0.0688 -0.0138 0.15134 -0.0138 q 0.0894 -0.007 0.1995 0 q 0.11006 0 0.24077 0 q 0.13758 0 0.28892 0 z" stroke-linecap="round" />
</g>
		<g transform="matrix(1 0 0 1 5.95 29.27)"  >
<path style="stroke: none; stroke-width: 1; stroke-dasharray: none; stroke-linecap: butt; stroke-dashoffset: 0; stroke-linejoin: miter; stroke-miterlimit: 4; fill: rgb(0,0,0); fill-rule: nonzero; opacity: 1;"  transform=" translate(-128.29, -163.72)" d="m 128.55 161.93 q 0.40588 0.007 0.68792 0.30269 q 0.28893 0.28892 0.28893 0.69479 q 0 0.0138 0 0.0344 q 0.007 0.30268 -0.0894 0.60537 q -0.0963 0.30268 -0.19262 0.55721 q -0.0963 0.25453 -0.0963 0.43339 q -0.007 0.0275 -0.007 0.0619 q 0 0.13758 0.0825 0.28892 q 0.0894 0.14447 0.21326 0.21326 q 0.11006 0.0619 0.19949 0.0413 q 0.0894 -0.0275 0.13759 -0.0757 q 0.0481 -0.0481 0.11694 -0.11006 q 0.0688 -0.0619 0.13759 -0.0825 q 0.10318 -0.0275 0.11006 0.0619 q 0.007 0.0826 -0.055 0.13758 q -0.055 0.0482 -0.14446 0.13071 q -0.0825 0.0825 -0.11695 0.11694 q -0.0344 0.0275 -0.0963 0.0688 q -0.055 0.0344 -0.11694 0.055 q -0.18574 0.0482 -0.32332 -0.0138 q -0.13759 -0.0688 -0.21326 -0.21326 q -0.0688 -0.15134 -0.10319 -0.31644 q -0.0344 -0.17198 -0.0344 -0.35083 q 0.007 -0.25453 0.1307 -0.75671 q 0.13071 -0.50218 0.10319 -0.77735 q -0.0344 -0.39211 -0.25453 -0.65352 t -0.51594 -0.26141 q -0.48842 0 -0.78422 0.33708 q -0.28893 0.33708 -0.41275 0.90117 q -0.0894 0.29581 -0.0206 0.85302 q 0.0757 0.55033 0.0413 0.86677 q -0.007 0.0825 -0.0619 0.17198 q -0.0482 0.0894 -0.11694 0.13759 q -0.0825 0.055 -0.2339 0.0757 q -0.14446 0.0275 -0.2614 0.007 q -0.11007 -0.0206 -0.11007 -0.0825 q 0.007 -0.0619 0.0619 -0.0825 q 0.055 -0.0275 0.11695 -0.0275 q 0.0688 0 0.1307 -0.0206 q 0.0619 -0.0275 0.0894 -0.0894 q 0.055 -0.18573 0.0344 -0.54345 q -0.0138 -0.3646 -0.0344 -0.65352 q -0.0206 -0.28893 0.0757 -0.62601 q 0.19262 -0.59161 0.56409 -0.94932 q 0.37148 -0.35772 0.87366 -0.45403 q 0.0963 -0.0138 0.19262 -0.0138 q 0.007 0 0.007 0 z m -0.85989 1.3414 q 0.055 -0.1307 0.19262 -0.23389 q 0.13758 -0.10319 0.28204 -0.11007 q 0.18574 -0.0206 0.37148 0.0757 q 0.19261 0.0894 0.19261 0.22702 q 0 0.0619 -0.0688 0.0825 q -0.0619 0.0206 -0.11694 -0.007 q -0.0138 -0.007 -0.19262 -0.11695 q -0.17886 -0.11006 -0.27517 -0.0963 q -0.15822 0.0138 -0.21325 0.22014 q -0.0482 0.19949 0.0688 0.31644 q 0.055 0.0481 0.17198 0.15822 q 0.11694 0.10319 0.1651 0.15822 q 0.055 0.0481 0.12382 0.13758 q 0.0688 0.0894 0.0963 0.19262 q 0.0275 0.0963 0.0344 0.22013 q 0 0.1995 -0.14446 0.35084 q -0.14447 0.15134 -0.34396 0.1651 q -0.0344 0 -0.0757 0 q -0.1995 0 -0.399 -0.0619 q -0.055 -0.0206 -0.055 -0.0825 q 0 -0.0413 0.0344 -0.0688 t 0.22701 0.0138 q 0.1995 0.0413 0.26141 0.007 q 0.055 -0.0482 0.0963 -0.13071 q 0.0413 -0.0825 0.0413 -0.15822 q 0 -0.055 -0.0138 -0.10319 q -0.0275 -0.14446 -0.22013 -0.3302 q -0.19262 -0.18574 -0.24077 -0.27516 q -0.0619 -0.13071 -0.0619 -0.27517 t 0.0619 -0.27517 z" stroke-linecap="round" />
</g>
		<g transform="matrix(1 0 0 1 9.65 29.44)"  >
<path style="stroke: none; stroke-width: 1; stroke-dasharray: none; stroke-linecap: butt; stroke-dashoffset: 0; stroke-linejoin: miter; stroke-miterlimit: 4; fill: rgb(0,0,0); fill-rule: nonzero; opacity: 1;"  transform=" translate(-131.99, -163.88)" d="m 133.92 162.73 q 0 0.0275 -0.0138 0.0688 q -0.007 0.0344 -0.0206 0.0688 q -0.0138 0.0344 -0.0413 0.0825 t -0.0482 0.0825 q -0.0206 0.0275 -0.0688 0.0894 q -0.0413 0.055 -0.0619 0.0825 t -0.0688 0.0894 t -0.0688 0.0894 q -0.1995 0.26829 -0.50218 0.52969 q -0.30269 0.25453 -0.54346 0.40587 q -0.23389 0.15135 -0.626 0.39212 q -0.39212 0.23389 -0.55722 0.33708 q -0.11006 0.0757 -0.32332 0.22013 q -0.21325 0.14446 -0.30268 0.1995 q -0.0825 0.055 -0.20637 0.11006 q -0.12383 0.055 -0.22014 0.0619 q -0.0619 0 -0.11007 -0.0482 q -0.0413 -0.0413 -0.0413 -0.10319 v -0.007 q 0.0275 -0.0825 0.0757 -0.15822 q 0.007 -0.0206 0.0138 -0.0825 q 0.0138 -0.0619 0.0344 -0.10318 q 0.0206 -0.0482 0.0619 -0.0619 q 0.0275 -0.007 0.10318 0.0138 q 0.0826 0.0138 0.12383 -0.007 q 0.0344 -0.007 0.30268 -0.0894 q 0.27517 -0.0894 0.40587 -0.14446 q 0.35084 -0.15822 0.81863 -0.44027 q 0.46778 -0.28204 0.77734 -0.52281 q 0.14446 -0.13071 0.31644 -0.33708 q 0.17198 -0.21326 0.26829 -0.38524 q 0.0963 -0.17197 0.0963 -0.37835 q 0 -0.007 0 -0.0138 q 0.0138 -0.0757 -0.0413 -0.19949 q -0.0481 -0.13071 -0.11694 -0.15823 q -0.12383 -0.0344 -0.24765 -0.0344 q -0.18574 0 -0.35772 0.0757 q -0.0825 0.0481 -0.17886 0.15134 q -0.0963 0.0963 -0.0963 0.15822 q 0.007 0.0413 0.0344 0.0757 q 0.0344 0.0344 0.0757 0.0344 q 0.0619 0 0.10319 -0.0963 q 0.0413 -0.10319 0.1307 -0.10319 q 0 0 0.007 0 q 0.055 0 0.0963 0.0413 q 0.0482 0.0413 0.0482 0.10319 q 0 0.10318 -0.14447 0.21325 q -0.14446 0.10319 -0.22701 0.10319 q -0.0894 0 -0.15822 -0.0413 q -0.0619 -0.0413 -0.0963 -0.0894 q -0.0344 -0.055 -0.11694 -0.0963 q -0.0757 -0.0482 -0.1995 -0.0482 q -0.22013 0.007 -0.44027 0.0688 q -0.0275 0.007 -0.0482 0.0206 q -0.0206 0.0138 -0.0344 0.0206 q -0.007 0.007 -0.0138 0.0206 q -0.007 0.0137 -0.007 0.0206 q 0 0 0 0.0138 t 0 0.0138 q 0 0.007 0.0482 0.0825 q 0.0482 0.0757 0.0482 0.10319 q 0 0.0963 -0.0963 0.13758 q -0.0894 0.0344 -0.17885 0.0344 q -0.17886 0 -0.17886 -0.11007 q 0 -0.0275 0.0413 -0.11007 q 0.0413 -0.0894 0.0413 -0.11694 q 0 -0.055 -0.11007 -0.24077 q -0.10319 -0.18574 -0.17198 -0.18574 q -0.0894 0 -0.20637 0.1651 q -0.11007 0.15822 -0.12383 0.22701 q -0.007 0.0344 -0.007 0.0619 q 0.007 0.0275 0 0.0688 t -0.0344 0.0825 q -0.0963 0.0825 -0.22014 0.0825 q -0.25453 0 -0.25453 -0.17198 q 0 -0.055 0.0206 -0.0757 q 0.0206 -0.0206 0.0825 -0.0413 q 0.0619 -0.0275 0.0963 -0.0481 q 0.17198 -0.15822 0.26141 -0.37148 q 0.0344 -0.055 0.0757 -0.14446 q 0.0413 -0.0894 0.0619 -0.12383 q 0.0275 -0.0344 0.0688 -0.0619 q 0.0482 -0.0344 0.11695 -0.0344 q 0.0757 0 0.1307 0.0275 q 0.0619 0.0275 0.0825 0.055 q 0.0275 0.0206 0.0894 0.0963 q 0.0619 0.0688 0.0825 0.0963 q 0.12383 0.13759 0.30957 0.15134 q 0.18573 0.0138 0.61224 -0.0413 q 0.12383 -0.0138 0.1995 -0.0894 q 0.0757 -0.0825 0.17198 -0.19262 q 0.10318 -0.11006 0.26141 -0.1651 q 0.11694 -0.0619 0.24765 -0.0688 q 0.0275 0 0.0481 0 q 0.13758 0 0.31644 0.055 q 0.18574 0.0482 0.30268 0.11695 q 0.0894 0.0619 0.15135 0.17886 q 0.0688 0.11006 0.0688 0.22013 q 0 0.0206 0 0.0413 z" stroke-linecap="round" />
</g>
		<g transform="matrix(1 0 0 1 13.24 29.24)"  >
<path style="stroke: none; stroke-width: 1; stroke-dasharray: none; stroke-linecap: butt; stroke-dashoffset: 0; stroke-linejoin: miter; stroke-miterlimit: 4; fill: rgb(0,0,0); fill-rule: nonzero; opacity: 1;"  transform=" translate(-135.59, -163.68)" d="m 137 161.93 v 0.007 q 0.055 -0.0206 0.0894 0.055 q 0.0413 0.0757 -0.0206 0.11006 q -0.46778 0.26829 -1.1144 0.68792 q -0.64664 0.41275 -1.0869 0.72919 q 0.14446 0 0.40587 0.007 t 0.47466 0.007 q 0.21326 0 0.40587 -0.0138 q 0.11695 -0.007 0.18574 0.0688 q 0.0757 0.0757 0 0.1651 q -0.19949 0.20638 -0.55721 0.57097 q -0.35772 0.35772 -0.46778 0.47467 q -0.15823 0.15822 -0.11007 0.17886 q 0.007 0.007 0.0275 0.007 q 0.26828 0.007 2.0431 0.0757 q 0.0894 0.007 0.11007 0.10318 q 0.0206 0.0894 -0.0275 0.17886 q -0.0413 0.0894 -0.10319 0.0894 q -2.0156 -0.0481 -2.4765 -0.0481 q -0.22013 -0.007 -0.21325 -0.055 q 0 -0.0138 0.0138 -0.0344 q 0.1651 -0.1995 0.35084 -0.39899 q 0.19262 -0.20638 0.44027 -0.46091 q 0.25453 -0.26141 0.37835 -0.39211 q 0.13759 -0.15134 0.0894 -0.17198 q -0.0138 -0.007 -0.0344 -0.007 h -1.1213 q -0.0138 0 -0.0619 0 q -0.0482 0 -0.0825 0 q -0.0275 0 -0.0688 0.0138 q -0.0344 0.007 -0.055 0.0275 q -0.007 0 -0.0206 0.0137 q -0.0482 0.0482 -0.0757 0.0688 q -0.0206 0.0206 -0.055 0.0688 q -0.0344 0.0481 -0.0482 0.0825 t -0.0206 0.0825 q 0 0.0481 0.0275 0.0963 q 0.0138 0.0275 0.0619 0.0619 q 0.0482 0.0275 0.0963 0.0413 t 0.0825 0.0413 q 0.0413 0.0275 0.0413 0.055 t -0.0413 0.0757 q -0.0757 0.0757 -0.20638 0.13071 q -0.12382 0.055 -0.22701 0.055 q -0.0275 0 -0.0481 0 q -0.17198 -0.0481 -0.20638 -0.22701 q -0.0344 -0.17886 0.055 -0.34396 q 0.0825 -0.15134 0.18573 -0.28893 q 0.10319 -0.13758 0.26829 -0.28204 q 0.17198 -0.15134 0.24765 -0.21326 q 0.0826 -0.0619 0.30268 -0.22701 q 0.28205 -0.22013 0.70856 -0.48842 t 0.74983 -0.42651 q 0.33708 -0.19949 0.70855 -0.35084 z m -2.4971 0.55722 q 0.007 0 0.0206 0 q 0.0688 0 0.13758 0.0413 q 0.0688 0.0413 0.10319 0.10319 q 0.0688 0.12382 -0.0757 0.25453 q -0.14446 0.12382 -0.32332 0.11007 q -0.1651 -0.0138 -0.0825 -0.24765 q 0.0894 -0.21326 0.22013 -0.26141 z m 2.7517 1.1351 q 0.0894 -0.0344 0.15134 0.14446 q 0.0275 0.13759 -0.0757 0.29581 q -0.11006 0.15822 -0.21325 0.0275 q -0.0482 -0.0757 -0.0482 -0.17198 q 0 -0.0825 0.055 -0.17198 q 0.055 -0.0894 0.1307 -0.12382 z" stroke-linecap="round" />
</g>
</g>
</g>
</svg>